# Blender v2.82 (sub 7) OBJ File: 'Explosion.blend'
# www.blender.org
o Plane
v -0.002025 -3.049862 3.049862
v -0.002025 3.049862 3.049862
v 0.001025 3.049862 -3.049862
v 0.001025 -3.049862 -3.049862
v -0.002025 3.049862 -3.049862
v 0.001025 3.049862 3.049862
v 0.001025 -3.049862 3.049862
v -0.002025 -3.049862 -3.049862
vt 0.000000 0.000000
vt 1.000000 1.000000
vt 0.000000 1.000000
vt 1.000000 0.000000
vt 1.000000 0.000000
vt 0.000000 1.000000
vt 1.000000 1.000000
vt 0.000000 0.000000
vn 1.0000 0.0000 0.0000
vn 0.0000 -1.0000 0.0000
vn 0.0000 1.0000 0.0000
vn 0.0000 0.0000 -1.0000
vn 0.0000 0.0000 1.0000
vn -1.0000 -0.0000 0.0000
s off
f 7/1/1 3/2/1 6/3/1
f 7/1/2 8/4/2 4/5/2
f 3/2/3 2/6/3 6/3/3
f 4/5/4 5/7/4 3/2/4
f 6/3/5 1/8/5 7/1/5
f 5/7/6 1/8/6 2/6/6
f 7/1/1 4/5/1 3/2/1
f 7/1/2 1/8/2 8/4/2
f 3/2/3 5/7/3 2/6/3
f 4/5/4 8/4/4 5/7/4
f 6/3/5 2/6/5 1/8/5
f 5/7/6 8/4/6 1/8/6