# Blender v2.82 (sub 7) OBJ File: 'Quasar.blend'
# www.blender.org
o Icosphere
v 0.000000 -351.995270 0.000000
v 254.706345 -157.419159 185.052826
v -97.287277 -157.419266 299.424500
v -314.833801 -157.417786 0.000000
v -97.287277 -157.419266 -299.424500
v 254.706345 -157.419159 -185.052826
v 97.287277 157.419266 299.424500
v -254.706345 157.419159 185.052826
v -254.706345 157.419159 -185.052826
v 97.287277 157.419266 -299.424500
v 314.833801 157.417786 0.000000
v 0.000000 351.995270 0.000000
v -57.183590 -299.426331 175.995972
v 149.711578 -299.426239 108.770554
v 92.528580 -185.057159 284.768280
v 299.424011 -185.056549 0.000000
v 149.711578 -299.426239 -108.770554
v -185.054398 -299.425354 0.000000
v -242.239410 -185.056656 175.996552
v -57.183590 -299.426331 -175.995972
v -242.239410 -185.056656 -175.996552
v 92.528580 -185.057159 -284.768280
v 334.767853 0.000000 108.770981
v 334.767853 0.000000 -108.770981
v 0.000000 0.000000 351.995239
v 206.897751 0.000000 284.770050
v -334.767853 0.000000 108.770981
v -206.897751 0.000000 284.770050
v -206.897751 0.000000 -284.770050
v -334.767853 0.000000 -108.770981
v 206.897751 0.000000 -284.770050
v 0.000000 0.000000 -351.995239
v 242.239410 185.056656 175.996552
v -92.528580 185.057159 284.768280
v -299.424011 185.056549 0.000000
v -92.528580 185.057159 -284.768280
v 242.239410 185.056656 -175.996552
v 57.183590 299.426300 175.995972
v 185.054398 299.425354 0.000000
v -149.711578 299.426239 108.770554
v -149.711578 299.426239 -108.770554
v 57.183590 299.426300 -175.995972
vt 0.502897 0.006054
vt 0.687435 0.118671
vt 0.725023 0.035139
vt 0.799460 0.314815
vt 0.602141 0.297312
vt 0.412563 0.000000
vt 0.252676 0.077752
vt 0.434737 0.137554
vt 0.726461 0.508427
vt 0.909469 0.233380
vt 0.906478 0.242022
vt 1.000000 0.499223
vt 0.326333 0.190488
vt 0.666515 0.147420
vt 0.500320 0.484109
vt 0.075182 0.275416
vt 0.117701 0.185533
vt 0.000000 0.492807
vt 0.395569 0.329365
vt 0.215573 0.275745
vt 0.273143 0.505519
vt 0.916234 0.505563
vt 0.869178 0.490406
vt 0.131232 0.485670
vt 0.083495 0.500221
vt 0.499787 0.508286
vt 0.927183 0.725395
vt 0.785839 0.734753
vt 0.750019 0.926469
vt 0.675525 0.786287
vt 0.885573 0.803501
vt 0.588823 0.993069
vt 0.087857 0.754279
vt 0.332429 0.831783
vt 0.272292 0.962635
vt 0.198696 0.695758
vt 0.090580 0.759347
vt 0.310430 0.891096
vt 0.604533 0.686000
vt 0.396913 0.717815
vt 0.565635 0.875169
vt 0.497014 1.000000
vn 0.1024 -0.9435 0.3151
vn 0.7002 -0.6617 0.2680
vn -0.2680 -0.9435 0.1947
vn -0.2680 -0.9435 -0.1947
vn 0.1024 -0.9435 -0.3151
vn 0.9050 -0.3304 0.2680
vn 0.0247 -0.3304 0.9435
vn -0.8897 -0.3304 0.3151
vn -0.5746 -0.3304 -0.7488
vn 0.5346 -0.3304 -0.7779
vn 0.8026 -0.1256 0.5831
vn -0.3066 -0.1256 0.9435
vn -0.9921 -0.1256 0.0000
vn -0.3066 -0.1256 -0.9435
vn 0.8026 -0.1256 -0.5831
vn 0.4089 0.6617 0.6284
vn -0.4713 0.6617 0.5831
vn -0.7002 0.6617 -0.2680
vn 0.0385 0.6617 -0.7488
vn 0.7240 0.6617 -0.1947
vn 0.2680 0.9435 -0.1947
vn 0.4911 0.7947 -0.3568
vn 0.4089 0.6617 -0.6284
vn -0.1024 0.9435 -0.3151
vn -0.1876 0.7947 -0.5773
vn -0.4713 0.6617 -0.5831
vn -0.3313 0.9435 0.0000
vn -0.6071 0.7947 0.0000
vn -0.7002 0.6617 0.2680
vn -0.1024 0.9435 0.3151
vn -0.1876 0.7947 0.5773
vn 0.0385 0.6617 0.7488
vn 0.2680 0.9435 0.1947
vn 0.4911 0.7947 0.3568
vn 0.7240 0.6617 0.1947
vn 0.8897 0.3304 -0.3151
vn 0.7947 0.1876 -0.5773
vn 0.5746 0.3304 -0.7488
vn -0.0247 0.3304 -0.9435
vn -0.3035 0.1876 -0.9342
vn -0.5346 0.3304 -0.7779
vn -0.9050 0.3304 -0.2680
vn -0.9822 0.1876 0.0000
vn -0.9050 0.3304 0.2680
vn -0.5346 0.3304 0.7779
vn -0.3035 0.1876 0.9342
vn -0.0247 0.3304 0.9435
vn 0.5746 0.3304 0.7488
vn 0.7947 0.1876 0.5773
vn 0.8897 0.3304 0.3151
vn 0.3066 0.1256 -0.9435
vn 0.3035 -0.1876 -0.9342
vn 0.0247 -0.3304 -0.9435
vn -0.8026 0.1256 -0.5831
vn -0.7947 -0.1876 -0.5773
vn -0.8897 -0.3304 -0.3151
vn -0.8026 0.1256 0.5831
vn -0.7947 -0.1876 0.5773
vn -0.5746 -0.3304 0.7488
vn 0.3066 0.1256 0.9435
vn 0.3035 -0.1876 0.9342
vn 0.5346 -0.3304 0.7779
vn 0.9921 0.1256 0.0000
vn 0.9822 -0.1876 0.0000
vn 0.9050 -0.3304 -0.2680
vn 0.4713 -0.6617 -0.5831
vn 0.1876 -0.7947 -0.5773
vn -0.0385 -0.6617 -0.7488
vn -0.4089 -0.6617 -0.6284
vn -0.4911 -0.7947 -0.3568
vn -0.7240 -0.6617 -0.1947
vn -0.7240 -0.6617 0.1947
vn -0.4911 -0.7947 0.3568
vn -0.4089 -0.6617 0.6284
vn 0.7002 -0.6617 -0.2680
vn 0.6071 -0.7947 0.0000
vn 0.3313 -0.9435 0.0000
vn -0.0385 -0.6617 0.7488
vn 0.1876 -0.7947 0.5773
vn 0.4713 -0.6617 0.5831
s off
f 1/1/1 14/2/1 13/3/1
f 2/4/2 14/2/2 16/5/2
f 1/1/3 13/3/3 18/6/3
f 1/1/4 18/6/4 20/7/4
f 1/1/5 20/7/5 17/8/5
f 2/4/6 16/5/6 23/9/6
f 3/10/7 15/11/7 25/12/7
f 4/13/8 19/14/8 27/15/8
f 5/16/9 21/17/9 29/18/9
f 6/19/10 22/20/10 31/21/10
f 2/4/11 23/9/11 26/22/11
f 3/10/12 25/12/12 28/23/12
f 4/13/13 27/15/13 30/24/13
f 5/16/14 29/18/14 32/25/14
f 6/19/15 31/21/15 24/26/15
f 7/27/16 33/28/16 38/29/16
f 8/30/17 34/31/17 40/32/17
f 9/33/18 35/34/18 41/35/18
f 10/36/19 36/37/19 42/38/19
f 11/39/20 37/40/20 39/41/20
f 39/41/21 42/38/21 12/42/21
f 39/41/22 37/40/22 42/38/22
f 37/40/23 10/36/23 42/38/23
f 42/38/24 41/35/24 12/42/24
f 42/38/25 36/37/25 41/35/25
f 36/37/26 9/33/26 41/35/26
f 41/35/27 40/32/27 12/42/27
f 41/35/28 35/34/28 40/32/28
f 35/34/29 8/30/29 40/32/29
f 40/32/30 38/29/30 12/42/30
f 40/32/31 34/31/31 38/29/31
f 34/31/32 7/27/32 38/29/32
f 38/29/33 39/41/33 12/42/33
f 38/29/34 33/28/34 39/41/34
f 33/28/35 11/39/35 39/41/35
f 24/26/36 37/40/36 11/39/36
f 24/26/37 31/21/37 37/40/37
f 31/21/38 10/36/38 37/40/38
f 32/25/39 36/37/39 10/36/39
f 32/25/40 29/18/40 36/37/40
f 29/18/41 9/33/41 36/37/41
f 30/24/42 35/34/42 9/33/42
f 30/24/43 27/15/43 35/34/43
f 27/15/44 8/30/44 35/34/44
f 28/23/45 34/31/45 8/30/45
f 28/23/46 25/12/46 34/31/46
f 25/12/47 7/27/47 34/31/47
f 26/22/48 33/28/48 7/27/48
f 26/22/49 23/9/49 33/28/49
f 23/9/50 11/39/50 33/28/50
f 31/21/51 32/25/51 10/36/51
f 31/21/52 22/20/52 32/25/52
f 22/20/53 5/16/53 32/25/53
f 29/18/54 30/24/54 9/33/54
f 29/18/55 21/17/55 30/24/55
f 21/17/56 4/13/56 30/24/56
f 27/15/57 28/23/57 8/30/57
f 27/15/58 19/14/58 28/23/58
f 19/14/59 3/10/59 28/23/59
f 25/12/60 26/22/60 7/27/60
f 25/12/61 15/11/61 26/22/61
f 15/11/62 2/4/62 26/22/62
f 23/9/63 24/26/63 11/39/63
f 23/9/64 16/5/64 24/26/64
f 16/5/65 6/19/65 24/26/65
f 17/8/66 22/20/66 6/19/66
f 17/8/67 20/7/67 22/20/67
f 20/7/68 5/16/68 22/20/68
f 20/7/69 21/17/69 5/16/69
f 20/7/70 18/6/70 21/17/70
f 18/6/71 4/13/71 21/17/71
f 18/6/72 19/14/72 4/13/72
f 18/6/73 13/3/73 19/14/73
f 13/3/74 3/10/74 19/14/74
f 16/5/75 17/8/75 6/19/75
f 16/5/76 14/2/76 17/8/76
f 14/2/77 1/1/77 17/8/77
f 13/3/78 15/11/78 3/10/78
f 13/3/79 14/2/79 15/11/79
f 14/2/80 2/4/80 15/11/80
