# Blender v2.82 (sub 7) OBJ File: 'Ring.blend'
# www.blender.org
o Torus
v 0.051459 -2.949192 1.607052
v 0.431783 -2.599630 1.428657
v 0.073791 -2.563477 -0.333608
v -0.301427 -2.956799 -0.389944
v 0.103619 -2.438171 -2.308156
v 0.477943 -2.147399 -2.036129
v 0.079778 -1.877176 -1.777076
v -0.294546 -2.167948 -2.049103
v 0.071816 -0.615469 -3.301369
v 0.449799 -0.534389 -2.915079
v -0.322690 -0.554937 -2.928052
v 0.340706 2.620178 -1.415683
v -0.039619 2.270617 -1.237288
v -0.471062 2.936251 0.376969
v -0.103619 2.438170 2.308156
v 0.322690 0.554937 2.928053
v -0.449799 0.534389 2.915079
v 0.375110 -1.266114 2.691064
v -0.009687 -1.110458 2.335582
v 0.039619 -2.270617 1.237288
v -0.340706 -2.620179 1.415683
v 0.095844 -3.329573 -0.433306
v 0.471062 -2.936251 -0.376970
v 0.055292 -0.473857 -2.541762
v 0.012582 1.442321 -3.033570
v 0.397379 1.286664 -2.678089
v 0.009687 1.110459 -2.335581
v -0.375110 1.266116 -2.691062
v -0.051459 2.949192 -1.607052
v -0.431783 2.599630 -1.428657
v -0.095844 3.329573 0.433305
v 0.301427 2.956799 0.389943
v -0.073791 2.563477 0.333607
v 0.294546 2.167947 2.049103
v -0.079778 1.877176 1.777076
v -0.477943 2.147399 2.036129
v -0.071816 0.615469 3.301369
v -0.055292 0.473857 2.541762
v -0.012582 -1.442318 3.033572
v -0.397379 -1.286662 2.678090
vt 0.281198 0.054010
vt 0.418130 0.032535
vt 0.397282 0.000000
vt 0.690600 0.041245
vt 0.814549 0.030894
vt 0.793820 0.000000
vt 0.813874 0.967465
vt 0.690297 0.952203
vt 0.793026 1.000000
vt 0.042248 0.876883
vt 0.075078 0.996983
vt 0.108689 0.976308
vt 0.209454 0.370192
vt 0.251911 0.205465
vt 0.209454 0.195411
vt 0.626807 0.316469
vt 0.669248 0.171943
vt 0.626807 0.162125
vt 0.669263 0.682451
vt 0.626807 0.827070
vt 0.669263 0.817016
vt 0.108689 0.593489
vt 0.000000 0.719399
vt 0.042248 0.730659
vt 0.397282 0.565602
vt 0.315401 0.485271
vt 0.281198 0.511592
vt 0.793819 0.499467
vt 0.724748 0.418325
vt 0.690600 0.445322
vt 0.813874 0.532002
vt 0.690297 0.547264
vt 0.724500 0.573585
vt 0.184887 0.564398
vt 0.150804 0.704299
vt 0.184887 0.678765
vt 0.209454 0.381196
vt 0.103220 0.492259
vt 0.137368 0.517791
vt 0.848681 0.106098
vt 0.965494 0.034000
vt 0.938040 0.000000
vt 0.856351 0.800866
vt 0.876942 0.941330
vt 0.911220 0.914145
vt 0.460587 0.360138
vt 0.489874 0.511592
vt 0.524077 0.485271
vt 0.137368 0.061184
vt 0.167013 0.217035
vt 0.209454 0.206788
vt 0.848681 0.393811
vt 0.858057 0.257172
vt 0.814549 0.256520
vt 0.911220 0.563280
vt 0.813874 0.657081
vt 0.856351 0.666848
vt 0.524077 0.080331
vt 0.418130 0.195411
vt 0.460587 0.205465
vt 0.315401 0.080331
vt 0.724748 0.066777
vt 0.724500 0.925882
vt 0.000000 0.884632
vt 0.251911 0.360138
vt 0.669248 0.306222
vt 0.626807 0.672397
vt 0.075078 0.564398
vt 0.418130 0.533068
vt 0.814549 0.465431
vt 0.793026 0.499467
vt 0.150804 0.575064
vt 0.167013 0.371378
vt 0.887752 0.126305
vt 0.813874 0.811124
vt 0.418130 0.370191
vt 0.103220 0.088181
vt 0.887752 0.376616
vt 0.876942 0.538038
vt 0.489874 0.054010
vt 0.020729 0.000000
vt 0.938040 0.465530
vt 0.978988 0.499467
vt 0.626807 0.032535
vt 0.020729 0.564398
vt 0.000000 0.533503
vt 0.978988 0.997964
vt 1.000000 0.963416
vt 0.605959 0.565602
vt 0.626807 0.533068
vt 0.108689 0.571646
vt 0.150804 0.728669
vt 0.108689 0.717019
vt 0.209454 0.565602
vt 0.246081 0.691060
vt 0.209454 0.684061
vt 0.000000 0.034036
vt 0.965494 0.439011
vt 1.000000 0.529724
vt 0.605958 0.000000
vt 0.150804 0.564398
vt 0.246081 0.588001
vn 0.7114 -0.6358 -0.2993
vn 0.6662 0.6725 0.3225
vn -0.7114 0.6358 0.2993
vn -0.6662 -0.6725 -0.3225
vn 0.6984 0.1121 -0.7069
vn 0.6792 -0.0755 0.7300
vn -0.6984 -0.1121 0.7069
vn -0.6792 0.0755 -0.7300
vn 0.6721 0.7304 -0.1215
vn 0.7055 -0.6938 0.1447
vn -0.6721 -0.7304 0.1215
vn -0.7055 0.6938 -0.1447
vn 0.6689 0.3646 0.6478
vn 0.7087 -0.3280 -0.6246
vn -0.6689 -0.3646 -0.6478
vn -0.7087 0.3280 0.6246
vn 0.6932 -0.4797 0.5379
vn 0.6844 0.5164 -0.5147
vn -0.6932 0.4797 -0.5379
vn -0.6844 -0.5164 0.5147
s off
f 5/1/1 23/2/1 22/3/1
f 6/4/2 3/5/2 23/6/2
f 3/7/3 8/8/3 4/9/3
f 8/10/4 22/11/4 4/12/4
f 25/13/5 10/14/5 9/15/5
f 26/16/6 24/17/6 10/18/6
f 27/19/7 11/20/7 24/21/7
f 28/22/8 9/23/8 11/24/8
f 31/25/9 12/26/9 29/27/9
f 32/28/10 13/29/10 12/30/10
f 33/31/11 30/32/11 13/33/11
f 14/34/12 29/35/12 30/36/12
f 37/37/13 34/38/13 15/39/13
f 16/40/14 35/41/14 34/42/14
f 38/43/15 36/44/15 35/45/15
f 17/46/16 15/47/16 36/48/16
f 1/49/17 18/50/17 39/51/17
f 2/52/18 19/53/18 18/54/18
f 20/55/19 40/56/19 19/57/19
f 21/58/20 39/59/20 40/60/20
f 5/1/1 6/61/1 23/2/1
f 6/4/2 7/62/2 3/5/2
f 3/7/3 7/63/3 8/8/3
f 8/10/4 5/64/4 22/11/4
f 25/13/5 26/65/5 10/14/5
f 26/16/6 27/66/6 24/17/6
f 27/19/7 28/67/7 11/20/7
f 28/22/8 25/68/8 9/23/8
f 31/25/9 32/69/9 12/26/9
f 32/28/10 33/70/10 13/29/10
f 33/31/11 14/71/11 30/32/11
f 14/34/12 31/72/12 29/35/12
f 37/37/13 16/73/13 34/38/13
f 16/40/14 38/74/14 35/41/14
f 38/43/15 17/75/15 36/44/15
f 17/46/16 37/76/16 15/47/16
f 1/49/17 2/77/17 18/50/17
f 2/52/18 20/78/18 19/53/18
f 20/55/19 21/79/19 40/56/19
f 21/58/20 1/80/20 39/59/20
f 22/81/10 2/77/10 1/49/10
f 23/82/9 20/78/9 2/52/9
f 20/55/12 4/83/12 21/79/12
f 4/84/11 1/80/11 21/58/11
f 9/15/14 6/61/14 5/1/14
f 10/18/13 7/62/13 6/4/13
f 24/21/16 8/8/16 7/63/16
f 11/24/15 5/64/15 8/10/15
f 29/27/18 26/65/18 25/13/18
f 12/30/17 27/66/17 26/16/17
f 13/33/20 28/67/20 27/19/20
f 31/85/2 34/38/2 32/86/2
f 35/45/4 14/87/4 33/88/4
f 36/48/3 31/89/3 14/90/3
f 39/51/6 16/73/6 37/37/6
f 18/54/5 38/74/5 16/40/5
f 38/43/8 40/56/8 17/75/8
f 40/60/7 37/76/7 17/46/7
f 30/91/19 25/92/19 28/93/19
f 34/94/1 33/95/1 32/96/1
f 22/81/10 23/97/10 2/77/10
f 23/82/9 3/98/9 20/78/9
f 20/55/12 3/99/12 4/83/12
f 4/84/11 22/100/11 1/80/11
f 9/15/14 10/14/14 6/61/14
f 10/18/13 24/17/13 7/62/13
f 24/21/16 11/20/16 8/8/16
f 11/24/15 9/23/15 5/64/15
f 29/27/18 12/26/18 26/65/18
f 12/30/17 13/29/17 27/66/17
f 13/33/20 30/32/20 28/67/20
f 31/85/2 15/39/2 34/38/2
f 35/45/4 36/44/4 14/87/4
f 36/48/3 15/47/3 31/89/3
f 39/51/6 18/50/6 16/73/6
f 18/54/5 19/53/5 38/74/5
f 38/43/8 19/57/8 40/56/8
f 40/60/7 39/59/7 37/76/7
f 30/91/19 29/101/19 25/92/19
f 34/94/1 35/102/1 33/95/1
