# Blender v2.82 (sub 7) OBJ File: 'Ship Model 3.blend'
# www.blender.org
o Cube
v 0.360816 1.064841 0.905043
v 0.354716 -0.773242 1.000000
v 2.446854 0.652999 0.977863
v -1.439478 0.672025 1.000000
v -1.439478 -0.773242 1.498000
v 3.093501 -0.440652 0.916572
v 3.093501 0.359370 1.000000
v 2.360816 0.924770 0.905043
v -1.439478 0.672025 0.618802
v -3.118283 -0.773242 1.000000
v 0.131745 -0.465112 2.068642
v 0.354716 0.672025 1.946396
v 3.093501 0.359370 0.500000
v 3.093501 -0.524079 0.500000
v -3.118296 -0.773247 0.999701
v -3.619940 -0.560474 0.999701
v 2.354702 -0.553703 0.499701
v 2.718594 -0.205356 1.207857
v 2.354702 0.488301 0.499701
v 0.156125 0.713713 0.999701
v 0.354702 -0.773247 0.999701
v 0.354703 0.672020 1.946097
v 2.354702 0.672020 1.946097
v -3.272620 -0.189052 1.000000
v -3.118283 -0.189052 0.724547
v 2.354715 0.672025 1.946396
v 3.093501 -0.524079 1.000000
v 3.093501 0.275943 0.916572
v 3.093501 0.275943 0.583427
v 3.350057 0.275943 0.583427
v 3.093501 -0.440652 0.583427
v 3.350057 0.275943 0.916572
v 3.350057 -0.440652 0.583427
v 3.350057 -0.440652 0.916572
v 0.360816 1.064841 -0.905043
v 0.354716 -0.773242 -1.000000
v 2.446854 0.652999 -0.977864
v -1.439478 0.672025 -1.000000
v -1.439478 -0.773242 -1.498000
v 3.093501 -0.440652 -0.916573
v 3.093501 0.359370 -1.000000
v 2.360816 0.924770 -0.905043
v 0.354716 -0.773242 -0.000000
v -1.439478 0.672025 0.000000
v -1.439478 0.672025 -0.618802
v -3.118283 -0.773242 -1.000000
v -3.426402 -0.773242 0.000000
v -3.426402 -0.189052 0.000000
v 0.131744 -0.465112 -2.068643
v 0.354715 0.672025 -1.946396
v 3.093501 0.359370 -0.500000
v 3.093501 -0.524079 -0.500000
v -3.118296 -0.773247 -0.999701
v -3.619940 -0.560474 -0.999701
v -3.928059 -0.560474 0.000000
v 2.354702 -0.553703 -0.499701
v 2.354702 -0.553703 -0.000000
v -1.439492 -0.773247 0.000000
v 2.718594 -0.205356 -1.207857
v 2.354702 0.488301 -0.499701
v 0.156125 0.713713 -0.999701
v 0.354702 -0.773247 -0.999701
v 0.354702 0.812092 -0.000000
v 2.354702 0.488301 -0.000000
v 0.354702 0.672020 -1.946097
v 2.354702 0.672020 -1.946097
v -3.272620 -0.189052 -1.000000
v -3.728529 -0.189056 0.000000
v -3.118283 -0.189052 -0.724547
v 2.354715 0.672025 -1.946396
v 3.093501 -0.524079 -1.000000
v 3.093501 0.275943 -0.916573
v 3.093501 0.275943 -0.583428
v 3.350057 0.275943 -0.583428
v 3.093501 -0.440652 -0.583428
v 3.350057 0.275943 -0.916573
v 3.350057 -0.440652 -0.583428
v 3.350057 -0.440652 -0.916573
v -0.897610 0.079082 1.512934
v 0.244450 -0.037249 1.466665
v -0.897610 0.169320 1.627151
v 0.244450 0.187415 1.751031
v -0.897610 0.223116 1.491894
v 0.244450 0.321351 1.414283
v -0.897610 -0.037249 1.466665
v -0.897610 0.187415 1.751031
v -0.897610 0.321351 1.414283
v -4.106706 -0.420898 0.576573
v -3.320002 -0.493767 0.622697
v -4.106706 -0.320711 0.572491
v -3.320002 -0.244332 0.612535
v -4.106706 -0.374340 0.487767
v -3.319999 -0.377851 0.401599
v -4.106706 -0.493767 0.622697
v -4.106706 -0.244332 0.612535
v -4.106706 -0.377851 0.401599
v -4.172265 -0.322335 -0.594573
v -3.385561 -0.249466 -0.640698
v -4.172265 -0.422522 -0.590491
v -3.385561 -0.498901 -0.630535
v -4.172265 -0.368893 -0.505768
v -3.385561 -0.365383 -0.419599
v -4.172265 -0.249466 -0.640698
v -4.172265 -0.498901 -0.630535
v -4.172265 -0.365383 -0.419599
v -0.897607 0.235260 -1.512941
v 0.244453 0.351591 -1.466672
v -0.897607 0.145023 -1.627158
v 0.244453 0.126927 -1.751038
v -0.897607 0.091227 -1.491902
v 0.244453 -0.007009 -1.414291
v -0.897607 0.351591 -1.466672
v -0.897607 0.126927 -1.751038
v -0.897607 -0.007009 -1.414291
vt 0.166469 0.479113
vt 0.055141 0.479113
vt 0.166770 0.279006
vt 0.331977 0.479113
vt 0.331977 0.702171
vt 0.331943 0.702172
vt 0.499231 0.747067
vt 0.456849 0.858936
vt 0.499235 0.747034
vt 0.222553 0.595169
vt 0.206652 0.768834
vt 0.110964 0.617693
vt 0.554882 0.737225
vt 0.499235 0.853381
vt 0.499235 0.737225
vt 0.944319 0.303614
vt 0.944319 0.545178
vt 0.906391 0.518737
vt 0.000000 0.279008
vt 0.055756 0.091771
vt 0.633411 0.195323
vt 0.645436 0.002189
vt 0.714309 0.001352
vt 0.647016 0.737225
vt 0.647016 0.977697
vt 0.610530 0.967500
vt 0.226707 0.717760
vt 0.331943 0.479113
vt 0.331944 0.781172
vt 0.402541 0.949076
vt 0.393251 0.859894
vt 0.402541 0.869194
vt 0.448931 0.958376
vt 0.439641 0.949076
vt 0.448931 0.859894
vt 0.439641 0.869194
vt 0.277797 0.479113
vt 0.333540 0.702172
vt 0.333506 0.479113
vt 0.333540 0.479114
vt 0.996762 0.755401
vt 0.996766 0.755435
vt 0.954380 0.643532
vt 0.000000 0.595169
vt 0.005171 0.768834
vt 0.610530 0.853381
vt 0.610530 0.737225
vt 0.964483 0.247272
vt 0.928870 0.026113
vt 0.964483 0.000000
vt 0.794698 0.193364
vt 0.783183 0.000515
vt 0.928219 0.592489
vt 0.954380 0.816879
vt 0.901411 0.816879
vt 0.825611 0.063651
vt 0.928870 0.000000
vt 0.928870 0.302788
vt 0.990709 0.312914
vt 1.000000 0.402096
vt 0.990709 0.392796
vt 0.953610 0.392796
vt 0.944319 0.402096
vt 0.953610 0.312914
vt 1.000000 0.303614
vt 0.944319 0.303614
vt 0.167103 0.057408
vt 0.278379 0.091772
vt 0.413388 0.221553
vt 0.358658 0.000000
vt 0.469953 0.000002
vt 0.581248 0.000000
vt 0.524650 0.221553
vt 0.444783 0.859894
vt 0.389161 0.859894
vt 0.395133 0.747034
vt 0.333540 0.859894
vt 0.713504 0.216065
vt 0.333540 0.279008
vt 0.469019 0.221553
vt 0.996755 0.128864
vt 0.964483 0.000000
vt 0.996755 0.001491
vt 0.174951 0.973017
vt 0.138216 0.905487
vt 0.174951 0.892480
vt 0.138216 1.000000
vt 0.098083 0.874222
vt 0.138216 0.875097
vt 0.226586 0.856750
vt 0.198839 0.768834
vt 0.226587 0.768846
vt 0.147884 0.884099
vt 0.161074 0.891433
vt 0.146319 0.896657
vt 0.142110 0.874222
vt 0.900583 0.961859
vt 0.876401 0.895707
vt 0.900583 0.906382
vt 0.308980 0.869744
vt 0.333277 0.781172
vt 0.333277 0.868912
vt 0.895718 0.899937
vt 0.900370 0.884744
vt 0.886005 0.895649
vt 0.895632 0.891246
vt 0.606848 0.940612
vt 0.579658 0.853381
vt 0.606848 0.854573
vt 0.308980 0.869744
vt 0.332828 0.958363
vt 0.308980 0.957484
vt 0.226587 0.944654
vt 0.211231 0.856909
vt 0.226587 0.856750
vt 0.772077 0.915420
vt 0.756298 0.913663
vt 0.764160 0.911893
vt 0.776008 0.896012
vt 0.772077 0.904804
vt 0.776008 0.922442
vt 0.211211 0.986093
vt 0.174951 0.888509
vt 0.208407 0.905605
vt 0.997681 0.944252
vt 0.960558 0.817853
vt 0.997681 0.816879
vt 0.944319 0.439819
vt 0.984640 0.567418
vt 0.944319 0.567430
vt 0.202294 0.895936
vt 0.188856 0.889069
vt 0.211211 0.874222
vt 0.203420 0.883331
vt 0.554882 0.853381
vt 0.393251 0.958376
vt 0.964483 0.127373
vt 0.138216 0.986024
vt 0.098083 0.999125
vt 0.198839 0.856738
vt 0.876401 0.951185
vt 0.308980 0.782003
vt 0.579658 0.939420
vt 0.332828 0.870623
vt 0.211231 0.944813
vt 0.177755 0.968997
vt 0.960558 0.945226
vt 0.984640 0.439807
vt 0.901411 0.884744
vt 0.807946 0.855615
vt 0.901411 0.592489
vt 0.333540 0.259749
vt 0.603074 0.263257
vt 0.712963 0.237364
vt 0.713792 0.283626
vt 0.602477 0.206576
vt 0.488477 0.854755
vt 0.115398 0.479113
vt 0.499235 0.909979
vt 0.098083 0.768834
vt 0.098083 0.877095
vt 0.000000 0.791968
vt 0.778458 0.634108
vt 0.785802 0.586598
vt 0.897832 0.477799
vt 0.906391 0.592489
vt 0.792758 0.471879
vt 0.778458 0.592489
vt 0.778458 0.896012
vt 0.662699 0.642065
vt 0.602477 0.259750
vt 0.825611 0.260553
vt 0.825080 0.203871
vt 0.825611 0.000000
vt 0.986008 0.647714
vt 0.996766 0.592489
vt 0.198839 0.874222
vt 0.098083 0.874222
vt 0.174149 0.768834
vt 0.659641 0.860775
vt 0.785802 0.586213
vt 0.667722 0.592489
vt 0.668593 0.477481
vt 0.774879 0.471362
vt 0.603008 0.002705
vt 0.906391 0.303614
vt 0.906253 0.432528
vt 0.792050 0.330843
vt 0.463154 0.303748
vt 0.488299 0.359126
vt 0.423121 0.343679
vt 0.499235 0.546096
vt 0.333540 0.551066
vt 0.055723 0.091772
vt 0.166607 0.000000
vt 0.226707 0.479113
vt 0.499235 0.747034
vt 0.960558 0.919476
vt 0.930206 0.963470
vt 0.901411 0.869616
vt 0.413150 0.303748
vt 0.357486 0.303748
vt 0.960558 0.816879
vt 0.395716 0.996087
vt 0.835598 0.939299
vt 0.853408 0.884744
vt 0.876401 0.939299
vt 0.579658 0.853381
vt 0.499235 0.956583
vt 0.499235 0.860820
vt 0.670346 0.303748
vt 0.785802 0.330748
vt 0.659641 0.432213
vt 0.636696 0.737225
vt 0.596618 0.697136
vt 0.659641 0.683576
vt 0.645884 0.511023
vt 0.503724 0.491759
vt 0.004088 0.479113
vt 0.499235 0.317010
vt 0.659641 0.303748
vt 0.393251 0.908889
vt 0.333540 0.952014
vt 0.359611 0.859894
vt 0.524478 0.303748
vt 0.580142 0.303748
vt 0.393251 0.997650
vt 0.997535 0.439807
vt 0.756298 0.948074
vt 0.715491 0.948074
vt 0.732683 0.896012
vt 0.308980 0.896996
vt 0.226707 0.795558
vt 0.308980 0.781172
vt 0.333944 0.729410
vt 0.277850 0.034364
vt 0.055260 0.034364
vt 0.579658 0.966330
vt 0.226707 0.893758
vt 0.687566 0.975159
vt 0.715491 0.896012
vt 0.715491 0.973688
vt 0.037100 0.877095
vt 0.000000 0.956976
vt 0.000000 0.877095
vt 0.283741 0.897040
vt 0.255224 0.934211
vt 0.255224 0.896996
vt 0.807028 0.884744
vt 0.778458 0.964418
vt 0.778458 0.884764
vt 0.924409 0.545857
vt 0.906391 0.582386
vt 0.906391 0.545178
vt 0.807028 0.884764
vt 0.835598 0.964398
vt 0.807028 0.964418
vt 0.074199 0.956976
vt 0.037100 0.877095
vt 0.074199 0.877095
vt 0.226707 0.896996
vt 0.255224 0.934254
vt 0.226707 0.934211
vt 0.687566 0.973688
vt 0.659641 0.897483
vt 0.687566 0.896012
vt 0.092218 0.914982
vt 0.074199 0.877095
vt 0.092218 0.877774
vt 0.687566 0.897483
vt 0.037100 0.956976
vt 0.283741 0.934254
vt 0.807028 0.964398
vt 0.924409 0.583066
vt 0.835598 0.884744
vt 0.037100 0.956976
vt 0.255224 0.897040
vt 0.659641 0.975159
vt 0.074199 0.914303
vn 0.0000 -1.0000 0.0000
vn 0.0000 -0.9999 0.0146
vn 0.9805 -0.1923 -0.0409
vn -0.0916 0.9926 0.0795
vn 1.0000 0.0000 0.0000
vn -0.0176 -0.2507 -0.9679
vn -0.4564 0.8898 0.0000
vn 0.2815 0.6508 -0.7051
vn 0.1963 -0.9305 0.3093
vn 0.0000 -0.9999 -0.0146
vn 0.9805 -0.1923 0.0409
vn -0.0916 0.9926 -0.0795
vn -0.0176 -0.2507 0.9679
vn 0.2815 0.6509 0.7051
vn 0.1963 -0.9305 -0.3093
vn 0.1091 -0.9940 -0.0000
vn 0.1598 0.9871 0.0000
vn -0.3921 0.9047 -0.1667
vn -0.3921 0.9047 0.1667
vn 0.0000 -0.7847 0.6199
vn 0.0000 0.9292 0.3696
vn 0.0000 -0.1445 -0.9895
vn 0.0000 0.0407 0.9992
vn -1.0000 0.0000 0.0000
vn 0.0000 0.8450 -0.5348
vn 0.0000 -0.8857 -0.4643
vn 0.0000 -0.0407 -0.9992
vn 0.0000 -0.8450 0.5348
vn 0.0000 0.8857 0.4643
vn 0.0000 0.7847 -0.6199
vn 0.0000 -0.9292 -0.3696
vn 0.0000 0.1445 0.9895
vn 0.3150 -0.5313 0.7864
vn 0.1890 -0.9161 0.3536
vn -0.8502 0.4567 0.2620
vn -0.4540 0.8539 -0.2544
vn -0.0000 1.0000 0.0000
vn 0.9434 0.3210 0.0835
vn -0.0776 0.9936 0.0824
vn 0.9386 0.2277 -0.2593
vn 0.9434 0.3210 0.0834
vn 0.0000 0.1069 0.9943
vn -0.9774 -0.1305 -0.1662
vn -0.9550 0.2098 0.2096
vn 0.3150 -0.5313 -0.7864
vn 0.1890 -0.9161 -0.3536
vn -0.6931 0.6479 -0.3160
vn -0.4252 0.9051 0.0000
vn 0.9434 0.3210 -0.0835
vn -0.0776 0.9936 -0.0824
vn 0.9386 0.2277 0.2593
vn 0.9434 0.3210 -0.0834
vn 0.0000 0.1069 -0.9943
vn -0.9774 -0.1305 0.1662
vn -0.9550 0.2098 -0.2096
vn -0.4540 0.8539 0.2544
vn -0.6931 0.6479 0.3160
vn -0.8502 0.4567 -0.2620
vn 0.0679 0.9695 0.2357
vn -0.8232 0.5328 0.1962
vn -0.0007 -0.0002 1.0000
vn -0.2700 0.3137 0.9103
vn -0.3877 -0.9140 0.1194
vn -0.0261 0.9997 0.0000
vn 0.2538 0.3151 0.9145
vn 0.4849 0.0000 0.8746
vn 0.0401 -0.9992 0.0000
vn 0.0973 0.2862 0.9532
vn -0.3422 -0.7615 0.5504
vn 0.4135 0.9105 0.0000
vn 0.1612 0.9231 -0.3490
vn 0.0004 0.0000 -1.0000
vn 0.0679 0.9695 -0.2357
vn -0.8232 0.5328 -0.1962
vn -0.0007 -0.0002 -1.0000
vn -0.2700 0.3137 -0.9103
vn -0.3877 -0.9140 -0.1194
vn 0.0002 0.0002 -1.0000
vn 0.4849 0.0000 -0.8746
vn 0.0973 0.2862 -0.9532
vn -0.3422 -0.7615 -0.5504
vn 0.1612 0.9231 0.3490
vn 0.0004 0.0000 1.0000
vn 0.0002 0.0002 1.0000
vn 0.2538 0.3151 -0.9145
vn -0.0001 0.9356 -0.3530
vn -0.0001 0.9356 0.3530
vn 0.0000 0.0000 1.0000
vn -0.0000 -0.0000 -1.0000
vn -0.3877 -0.9140 -0.1195
vn -0.3877 -0.9140 0.1195
s off
f 43/1/1 2/2/1 58/3/1
f 22/4/2 23/5/2 26/6/2
f 23/7/3 8/8/3 26/9/3
f 20/10/4 8/11/4 63/12/4
f 57/13/5 19/14/5 17/15/5
f 8/16/6 20/17/6 1/18/6
f 5/19/1 15/20/1 58/3/1
f 25/21/7 9/22/7 44/23/7
f 63/24/8 8/25/8 19/26/8
f 2/27/9 18/28/9 11/29/9
f 28/30/5 27/31/5 6/32/5
f 13/33/5 28/30/5 29/34/5
f 6/32/5 14/35/5 31/36/5
f 14/35/5 29/34/5 31/36/5
f 43/1/1 58/3/1 36/37/1
f 65/38/10 70/39/10 66/40/10
f 66/41/11 70/42/11 42/43/11
f 61/44/12 63/12/12 42/45/12
f 60/46/5 57/13/5 56/47/5
f 42/48/13 35/49/13 61/50/13
f 69/51/7 44/23/7 45/52/7
f 63/53/14 60/54/14 42/55/14
f 36/56/15 49/57/15 59/58/15
f 40/59/5 41/60/5 72/61/5
f 73/62/5 41/60/5 51/63/5
f 75/64/5 71/65/5 40/59/5
f 73/62/5 52/66/5 75/64/5
f 47/67/1 46/68/1 58/3/1
f 17/69/16 21/70/16 43/71/16
f 62/72/16 56/73/16 43/71/16
f 19/74/17 64/75/17 63/76/17
f 60/77/17 63/76/17 64/75/17
f 44/23/18 69/51/18 48/78/18
f 44/23/19 48/78/19 25/21/19
f 58/3/1 46/68/1 39/79/1
f 58/3/1 15/20/1 47/67/1
f 36/37/1 58/3/1 39/79/1
f 58/3/1 2/2/1 5/19/1
f 43/71/16 57/80/16 17/69/16
f 43/71/16 56/73/16 57/80/16
f 80/81/20 86/82/20 85/83/20
f 82/84/21 87/85/21 86/86/21
f 84/87/22 85/88/22 87/89/22
f 89/90/23 95/91/23 94/92/23
f 79/93/24 86/86/24 81/94/24
f 81/94/24 87/85/24 83/95/24
f 83/95/24 85/96/24 79/93/24
f 91/97/25 96/98/25 95/99/25
f 96/100/26 89/101/26 94/102/26
f 90/103/24 94/104/24 95/99/24
f 92/105/24 95/99/24 96/98/24
f 88/106/24 96/98/24 94/104/24
f 98/107/27 104/108/27 103/109/27
f 100/110/28 105/111/28 104/112/28
f 102/113/29 103/114/29 105/115/29
f 97/116/24 104/117/24 99/118/24
f 99/118/24 105/119/24 101/120/24
f 97/116/24 105/119/24 103/121/24
f 107/122/30 113/123/30 112/124/30
f 109/125/31 114/126/31 113/127/31
f 111/128/32 112/129/32 114/130/32
f 106/131/24 113/123/24 108/132/24
f 108/132/24 114/133/24 110/134/24
f 110/134/24 112/124/24 106/131/24
f 57/13/5 64/135/5 19/14/5
f 28/30/5 7/136/5 27/31/5
f 13/33/5 7/136/5 28/30/5
f 6/32/5 27/31/5 14/35/5
f 14/35/5 13/33/5 29/34/5
f 60/46/5 64/135/5 57/13/5
f 40/59/5 71/65/5 41/60/5
f 73/62/5 72/61/5 41/60/5
f 75/64/5 52/66/5 71/65/5
f 73/62/5 51/63/5 52/66/5
f 80/81/20 82/137/20 86/82/20
f 82/84/21 84/138/21 87/85/21
f 84/87/22 80/139/22 85/88/22
f 89/90/23 91/140/23 95/91/23
f 79/93/24 85/96/24 86/86/24
f 81/94/24 86/86/24 87/85/24
f 83/95/24 87/85/24 85/96/24
f 91/97/25 93/141/25 96/98/25
f 96/100/26 93/142/26 89/101/26
f 90/103/24 88/106/24 94/104/24
f 92/105/24 90/103/24 95/99/24
f 88/106/24 92/105/24 96/98/24
f 98/107/27 100/143/27 104/108/27
f 100/110/28 102/144/28 105/111/28
f 102/113/29 98/145/29 103/114/29
f 97/116/24 103/121/24 104/117/24
f 99/118/24 104/117/24 105/119/24
f 97/116/24 101/120/24 105/119/24
f 107/122/30 109/146/30 113/123/30
f 109/125/31 111/147/31 114/126/31
f 111/128/32 107/148/32 112/129/32
f 106/131/24 112/124/24 113/123/24
f 108/132/24 113/123/24 114/133/24
f 110/134/24 114/133/24 112/124/24
f 18/149/33 26/150/33 11/151/33
f 18/152/34 21/70/34 17/69/34
f 16/153/35 68/154/35 55/155/35
f 24/156/36 9/22/36 25/21/36
f 68/154/37 24/156/37 48/78/37
f 23/7/38 3/157/38 8/8/38
f 44/158/39 20/10/39 63/12/39
f 3/157/40 19/159/40 8/8/40
f 3/160/41 26/161/41 18/162/41
f 26/150/42 12/163/42 11/151/42
f 11/164/43 20/165/43 21/166/43
f 20/165/44 11/164/44 22/167/44
f 59/168/45 49/169/45 70/170/45
f 59/171/46 56/73/46 62/72/46
f 54/172/47 68/154/47 67/173/47
f 38/174/48 67/173/48 45/52/48
f 68/154/37 48/78/37 67/173/37
f 66/41/49 42/43/49 37/175/49
f 44/158/50 63/12/50 61/44/50
f 37/175/51 42/43/51 60/176/51
f 37/177/52 59/178/52 70/179/52
f 70/170/53 49/169/53 50/180/53
f 49/181/54 62/182/54 61/183/54
f 61/183/55 65/184/55 49/181/55
f 24/156/48 4/185/48 9/22/48
f 45/52/56 67/173/56 69/51/56
f 67/173/37 48/78/37 69/51/37
f 48/78/37 24/156/37 25/21/37
f 16/153/57 24/156/57 68/154/57
f 54/172/58 55/155/58 68/154/58
f 8/186/59 1/187/59 26/188/59
f 20/165/60 22/167/60 1/187/60
f 16/189/61 10/190/61 24/191/61
f 5/192/62 4/193/62 10/190/62
f 47/67/63 10/194/63 55/195/63
f 20/10/64 44/158/64 4/196/64
f 5/192/65 2/197/65 4/193/65
f 18/198/66 27/199/66 7/200/66
f 14/201/67 27/202/67 17/69/67
f 7/200/68 3/203/68 18/198/68
f 17/69/69 27/202/69 18/152/69
f 7/136/70 13/33/70 3/204/70
f 19/205/71 3/206/71 13/207/71
f 17/208/72 13/209/72 14/210/72
f 42/211/73 70/212/73 35/213/73
f 61/183/74 35/213/74 65/184/74
f 54/214/75 67/215/75 46/216/75
f 39/217/76 46/216/76 38/218/76
f 47/67/77 55/195/77 46/68/77
f 61/44/64 38/219/64 44/158/64
f 38/218/78 61/220/78 36/221/78
f 59/222/79 41/223/79 71/224/79
f 52/225/67 56/73/67 71/226/67
f 41/223/80 59/222/80 37/227/80
f 56/73/81 59/171/81 71/226/81
f 41/60/70 37/228/70 51/63/70
f 60/229/82 51/230/82 37/231/82
f 56/232/83 51/233/83 60/234/83
f 4/193/84 2/197/84 20/235/84
f 39/217/85 38/218/85 36/221/85
f 35/213/86 70/212/86 65/184/86
f 26/188/87 1/187/87 22/167/87
f 10/190/88 4/193/88 24/191/88
f 38/218/89 46/216/89 67/215/89
f 46/68/90 55/195/90 54/236/90
f 55/195/91 10/194/91 16/237/91
f 17/208/72 19/238/72 13/209/72
f 56/232/83 52/239/83 51/233/83
f 30/240/89 31/241/89 29/242/89
f 33/243/5 32/244/5 34/245/5
f 33/246/1 6/247/1 31/248/1
f 34/249/88 28/250/88 6/251/88
f 32/252/37 29/253/37 28/254/37
f 75/255/88 74/256/88 73/257/88
f 76/258/5 77/259/5 78/260/5
f 40/261/1 77/262/1 75/263/1
f 72/264/89 78/265/89 40/266/89
f 73/267/37 76/268/37 72/269/37
f 30/240/89 33/270/89 31/241/89
f 33/243/5 30/271/5 32/244/5
f 33/246/1 34/272/1 6/247/1
f 34/249/88 32/273/88 28/250/88
f 32/252/37 30/274/37 29/253/37
f 75/255/88 77/275/88 74/256/88
f 76/258/5 74/276/5 77/259/5
f 40/261/1 78/277/1 77/262/1
f 72/264/89 76/278/89 78/265/89
f 73/267/37 74/279/37 76/268/37
l 15 16
l 8 18
l 53 54
l 47 53
l 42 59
l 58 44
