# Blender v2.82 (sub 7) OBJ File: 'Ship Model 2.blend'
# www.blender.org
o Cube
v 0.808742 -0.354984 -1.760010
v -2.261257 -0.546768 -0.780009
v 0.208743 0.373231 -0.550010
v -0.884492 0.190239 -0.396091
v -1.531812 0.220397 -0.192664
v -2.136333 -0.019301 -0.219842
v -2.660737 0.099197 0.001609
v 0.276635 -1.957604 -2.059900
v 2.320881 0.285886 -2.005145
v 2.660714 0.129338 -1.001864
v 2.666909 0.439469 -1.002167
v 2.058823 0.069313 -0.064941
v 2.058823 0.069313 -0.314236
v 2.058823 0.463912 -0.314236
v 2.058823 0.463912 -0.064941
v 2.058823 0.004383 -0.379167
v 2.058823 0.528843 -0.379167
v 2.248822 0.069313 -0.064941
v 2.248822 0.069313 -0.314236
v 2.248822 0.463912 -0.314236
v 2.248822 0.463912 -0.064941
v 0.808743 -0.354984 -1.074370
v 1.734728 -0.112823 -1.038117
v 1.688743 -0.074160 -0.000001
v 1.688743 0.583232 -0.000001
v 0.808743 -0.354984 -0.000000
v 0.808744 -0.354984 1.760010
v -2.261257 -0.546768 0.780011
v -3.697734 -0.280658 0.000001
v -2.261257 -0.546767 0.000001
v -1.270809 0.608330 0.000000
v 0.208743 0.373231 0.550010
v -0.884492 0.190239 0.396092
v -1.531812 0.220397 0.192665
v -2.136333 -0.019301 0.219843
v -2.660737 0.099197 -0.001607
v 0.276636 -1.957604 2.059900
v 2.320882 0.285886 2.005144
v 2.660714 0.129338 1.001863
v 2.666909 0.439469 1.002165
v 2.058823 0.069313 0.064940
v 2.058823 0.069313 0.314235
v 2.058823 0.463912 0.314235
v 2.058823 0.463912 0.064940
v 2.058823 0.004383 -0.000001
v 2.058823 0.004383 0.379165
v 2.058823 0.528843 0.379165
v 2.058823 0.528843 -0.000001
v 2.248822 0.069313 0.064940
v 2.248822 0.069313 0.314235
v 2.248822 0.463912 0.314235
v 2.248822 0.463912 0.064940
v 0.808743 -0.354984 1.074369
v 0.208967 0.595781 -0.000000
v 1.734729 -0.112823 1.038116
vt 0.857065 0.000000
vt 0.857066 0.388230
vt 0.766325 0.213722
vt 0.950210 0.159433
vt 1.000000 0.000000
vt 1.000000 0.128559
vt 0.985719 0.200292
vt 1.000000 0.275769
vt 1.000000 0.459381
vt 0.978726 0.331193
vt 0.950210 0.361844
vt 0.903638 0.624425
vt 0.857066 0.525161
vt 0.647880 0.989072
vt 0.585809 0.947948
vt 0.647880 0.756418
vt 0.302484 0.428207
vt 0.365251 0.581231
vt 0.305326 0.578217
vt 0.268133 0.481891
vt 0.243155 0.308104
vt 0.300002 0.297202
vt 0.857065 0.776461
vt 0.766325 0.562739
vt 0.857065 0.388230
vt 0.950210 0.759330
vt 1.000000 0.790204
vt 1.000000 0.918763
vt 0.985719 0.718471
vt 1.000000 0.642994
vt 0.978726 0.587570
vt 0.950210 0.361844
vt 0.903638 0.099264
vt 0.950210 0.000000
vt 0.709950 0.756418
vt 0.709950 0.989072
vt 0.647880 0.797542
vt 0.220532 0.443386
vt 0.259840 0.586642
vt 0.203865 0.611123
vt 0.186204 0.318280
vt 0.950210 0.723689
vt 0.857066 0.198528
vt 0.500339 0.756418
vt 0.500339 1.000000
vt 0.414869 0.835409
vt 0.629958 0.756418
vt 0.561543 0.607818
vt 0.663913 0.649969
vt 0.164903 0.884688
vt 0.181299 0.765323
vt 0.197413 0.884688
vt 0.414869 0.202288
vt 0.308869 0.765323
vt 0.414869 0.021146
vt 0.251144 0.083499
vt 0.305308 0.000000
vt 0.164903 0.846329
vt 0.124038 0.766059
vt 0.156540 0.765323
vt 0.585809 1.000000
vt 0.500339 0.921008
vt 0.585809 0.756418
vt 0.429897 0.683840
vt 0.456612 0.574766
vt 0.742460 0.875782
vt 0.709950 0.875782
vt 0.726063 0.756418
vt 0.050719 0.269736
vt 0.000000 0.097988
vt 0.097958 0.038406
vt 0.172693 0.098030
vt 0.095838 0.766059
vt 0.054973 0.846329
vt 0.063336 0.765323
vt 0.218178 0.134317
vt 0.109938 0.846329
vt 0.109938 0.846329
vt 0.688445 0.157009
vt 0.732643 0.000000
vt 0.766325 0.185262
vt 0.211918 0.090765
vt 0.197413 0.810441
vt 0.236974 0.765323
vt 0.236974 0.810441
vt 0.048167 0.818169
vt 0.054973 0.855559
vt 0.048167 0.847833
vt 0.006806 0.818169
vt 0.000000 0.855559
vt 0.000000 0.810441
vt 0.006806 0.847833
vt 0.054973 0.810441
vt 0.610565 0.128756
vt 0.236974 0.855559
vt 0.054973 0.765323
vt 0.048167 0.802714
vt 0.048167 0.773049
vt 0.006806 0.802714
vt 0.000000 0.765323
vt 0.006806 0.773049
vt 0.348519 0.812270
vt 0.328758 0.765373
vt 0.348519 0.765323
vt 0.263104 0.812277
vt 0.236974 0.765323
vt 0.263104 0.765323
vt 0.368281 0.765323
vt 0.388194 0.794987
vt 0.368281 0.794987
vt 0.348519 0.765323
vt 0.368281 0.812320
vt 0.348519 0.812270
vt 0.368281 0.794987
vt 0.388001 0.824652
vt 0.368281 0.824652
vt 0.308997 0.765373
vt 0.289235 0.812270
vt 0.289235 0.765323
vt 0.289235 0.765323
vt 0.263104 0.812277
vt 0.263104 0.765323
vt 0.408107 0.765323
vt 0.388194 0.794987
vt 0.388194 0.765323
vt 0.308997 0.812320
vt 0.328758 0.765323
vt 0.328758 0.812270
vt 0.388194 0.824652
vt 0.407914 0.794987
vt 0.407914 0.824652
vt 0.328758 0.812320
vt 0.236974 0.812277
vt 0.388194 0.765323
vt 0.368281 0.765373
vt 0.388001 0.794987
vt 0.308997 0.812320
vt 0.289235 0.812277
vt 0.408107 0.794987
vt 0.308997 0.765373
vt 0.388194 0.794987
vt 0.590597 0.504606
vt 0.483327 0.465691
vt 0.766325 0.568355
vt 0.697867 0.543520
vt 0.414869 0.440856
vn 0.3666 0.0521 -0.9289
vn -0.2070 0.5652 -0.7985
vn -0.2267 0.5513 -0.8029
vn -0.2100 0.6157 -0.7595
vn -0.2073 0.5693 -0.7956
vn 0.1106 -0.5470 0.8298
vn -0.9491 0.3151 0.0000
vn -0.2136 0.7346 -0.6440
vn 0.0079 0.9270 -0.3751
vn 0.3666 0.0521 0.9289
vn -0.2070 0.5652 0.7985
vn -0.2267 0.5513 0.8029
vn -0.2100 0.6157 0.7595
vn -0.2073 0.5693 0.7956
vn 0.1106 -0.5470 -0.8298
vn -0.2136 0.7346 0.6440
vn 0.0079 0.9270 0.3751
vn 0.3416 -0.9041 -0.2568
vn 0.2510 -0.9668 0.0471
vn 0.9461 -0.0192 -0.3234
vn -0.2398 0.7616 -0.6021
vn -0.0072 0.9888 -0.1489
vn 0.7146 -0.0136 0.6994
vn 0.3416 -0.9041 0.2568
vn 0.2510 -0.9668 -0.0471
vn 0.9461 -0.0192 0.3234
vn -0.2398 0.7616 0.6021
vn -0.0072 0.9888 0.1489
vn 0.7146 -0.0136 -0.6994
vn -0.0635 0.9773 0.2022
vn -0.0635 0.9773 -0.2022
vn 0.7190 0.0000 0.6950
vn 0.7190 0.0000 -0.6950
vn -0.0682 0.9850 0.1582
vn -0.0682 0.9850 -0.1582
vn -0.1822 -0.9833 0.0000
vn 0.1454 0.9894 -0.0000
vn 0.2076 -0.9782 -0.0000
vn 1.0000 -0.0000 0.0000
vn 0.0000 0.0000 1.0000
vn 0.0000 1.0000 0.0000
vn -0.0000 0.0000 -1.0000
vn 0.0000 -1.0000 0.0000
vn 0.0623 -0.9981 0.0000
vn -0.2132 0.7868 -0.5792
vn 0.3037 -0.9515 0.0489
vn -0.2132 0.7868 0.5792
vn 0.3037 -0.9515 -0.0489
vn -0.3911 0.6899 0.6091
vn -0.3911 0.6899 -0.6091
vn 0.2530 -0.9675 -0.0000
vn -0.1987 0.5399 0.8179
vn -0.1987 0.5399 -0.8179
vn -0.1981 0.5884 0.7839
vn -0.1981 0.5884 -0.7839
s off
f 10/1/1 8/2/1 1/3/1
f 31/4/2 3/5/2 4/6/2
f 4/6/3 5/7/3 31/4/3
f 5/7/4 4/6/4 6/8/4
f 6/8/5 29/9/5 7/10/5
f 8/11/6 23/12/6 22/13/6
f 22/14/7 1/15/7 8/16/7
f 4/17/8 2/18/8 6/19/8
f 31/20/9 54/21/9 3/22/9
f 39/23/10 27/24/10 37/25/10
f 31/26/11 33/27/11 32/28/11
f 33/27/12 31/26/12 34/29/12
f 34/29/13 35/30/13 33/27/13
f 35/30/14 36/31/14 29/9/14
f 37/32/15 55/33/15 39/34/15
f 53/35/7 37/36/7 27/37/7
f 33/38/16 35/39/16 28/40/16
f 31/20/17 32/41/17 54/21/17
f 8/11/6 10/42/6 23/12/6
f 37/32/15 53/43/15 55/33/15
f 10/44/18 1/45/18 9/46/18
f 10/47/19 24/48/19 23/49/19
f 10/50/20 9/51/20 11/52/20
f 1/53/21 2/18/21 4/17/21
f 29/54/8 6/19/8 2/18/8
f 9/55/22 17/56/22 11/57/22
f 17/58/23 10/59/23 11/60/23
f 39/61/24 38/62/24 27/63/24
f 39/64/25 55/65/25 24/48/25
f 39/66/26 40/67/26 38/68/26
f 27/69/27 33/38/27 28/40/27
f 29/54/16 28/40/16 35/39/16
f 38/70/28 40/71/28 47/72/28
f 39/73/29 47/74/29 40/75/29
f 32/41/30 47/72/30 25/76/30
f 17/56/31 3/22/31 25/76/31
f 17/58/32 16/77/32 10/59/32
f 39/73/33 46/78/33 47/74/33
f 32/41/34 38/70/34 47/72/34
f 17/56/35 9/55/35 3/22/35
f 30/79/36 29/80/36 2/81/36
f 25/76/9 3/22/9 54/21/9
f 48/82/37 17/56/37 25/76/37
f 24/83/38 16/84/38 45/85/38
f 12/86/39 16/87/39 13/88/39
f 15/89/39 17/90/39 48/91/39
f 13/88/39 17/90/39 14/92/39
f 15/89/39 45/93/39 12/86/39
f 30/79/36 28/94/36 29/80/36
f 25/76/17 54/21/17 32/41/17
f 48/82/37 25/76/37 47/72/37
f 24/83/38 45/85/38 46/95/38
f 46/96/39 41/97/39 42/98/39
f 44/99/39 47/100/39 43/101/39
f 47/100/39 42/98/39 43/101/39
f 45/93/39 44/99/39 41/97/39
f 12/86/39 45/93/39 16/87/39
f 15/89/39 14/92/39 17/90/39
f 13/88/39 16/87/39 17/90/39
f 15/89/39 48/91/39 45/93/39
f 46/96/39 45/93/39 41/97/39
f 44/99/39 48/91/39 47/100/39
f 47/100/39 46/96/39 42/98/39
f 45/93/39 48/91/39 44/99/39
f 12/102/40 21/103/40 15/104/40
f 20/105/39 18/106/39 19/107/39
f 15/108/41 20/109/41 14/110/41
f 14/111/42 19/112/42 13/113/42
f 13/114/43 18/115/43 12/116/43
f 52/117/42 41/118/42 44/119/42
f 49/120/39 51/121/39 50/122/39
f 51/123/41 44/124/41 43/125/41
f 50/126/40 43/127/40 42/128/40
f 49/129/43 42/130/43 41/131/43
f 12/102/40 18/132/40 21/103/40
f 20/105/39 21/133/39 18/106/39
f 15/108/41 21/134/41 20/109/41
f 14/111/42 20/135/42 19/112/42
f 13/114/43 19/136/43 18/115/43
f 52/117/42 49/137/42 41/118/42
f 49/120/39 52/138/39 51/121/39
f 51/123/41 52/139/41 44/124/41
f 50/126/40 51/140/40 43/127/40
f 49/129/43 50/141/43 42/130/43
f 26/142/44 30/79/44 2/81/44
f 1/53/45 4/17/45 3/22/45
f 26/142/46 23/49/46 24/48/46
f 28/94/44 26/142/44 53/143/44
f 27/69/47 32/41/47 33/38/47
f 55/65/48 26/142/48 24/48/48
f 27/69/49 38/70/49 32/41/49
f 1/53/50 3/22/50 9/55/50
f 2/81/44 1/144/44 22/145/44
f 22/145/44 26/142/44 2/81/44
f 26/142/51 22/145/51 23/49/51
f 53/143/44 27/146/44 28/94/44
f 28/94/44 30/79/44 26/142/44
f 55/65/51 53/143/51 26/142/51
f 36/31/52 34/29/52 31/26/52
f 5/7/53 7/10/53 31/4/53
f 36/31/54 35/30/54 34/29/54
f 5/7/55 6/8/55 7/10/55
l 31 29
